<?xml version="1.0" encoding="UTF-8"?>
<svg width="25px" height="20px" viewBox="0 0 25 20" version="1.1" xmlns="http://www.w3.org/2000/svg" xmlns:xlink="http://www.w3.org/1999/xlink">
    <!-- Generator: Sketch 50.2 (55047) - http://www.bohemiancoding.com/sketch -->
    <title>noun_857930</title>
    <desc>Created with Sketch.</desc>
    <defs></defs>
    <g id="Page-1" stroke="none" stroke-width="1" fill="none" fill-rule="evenodd">
        <g id="Careers:-Employment-Opportunities" transform="translate(-843.000000, -2230.000000)" fill="#F16668" fill-rule="nonzero">
            <g id="Group" transform="translate(300.000000, 1534.000000)">
                <g id="noun_857930" transform="translate(543.000000, 696.000000)">
                    <path d="M16.3301499,13.0729043 L13.0693928,9.75973374 C12.815339,9.50037861 12.4019023,9.50037861 12.1478484,9.75973374 L8.88709133,13.0729043 C8.63183912,13.3322595 8.63183912,13.7511241 8.88709133,14.0092616 C9.01411825,14.1383304 9.18069129,14.2028647 9.3484627,14.2028647 C9.51503574,14.2028647 9.68280714,14.1383304 9.80983406,14.0092616 L11.9573081,11.8272691 L11.9573081,19.3376094 C11.9573081,19.7028983 12.2497097,20 12.6092198,20 C12.96873,20 13.2611316,19.7028983 13.2611316,19.3376094 L13.2611316,11.8272691 L15.4086055,14.0092616 C15.5356325,14.1383304 15.7022055,14.2028647 15.8699769,14.2028647 C16.03655,14.2028647 16.2043214,14.1383304 16.3313483,14.0092616 C16.5854021,13.7511241 16.5854021,13.3310418 16.3301499,13.0729043 Z" id="Shape"></path>
                    <path d="M19.3856201,6.47542269 C19.0687549,2.85297417 15.9545262,0 12.173913,0 C8.18286267,0 4.93559896,3.17852101 4.93559896,7.08508315 C4.93559896,7.40826238 4.95978714,7.73262542 5.0069541,8.05698845 C4.9283425,8.05343703 4.84973091,8.05106942 4.77111931,8.05106942 C2.14065429,8.05106942 0,10.1464073 0,12.7211869 C0,15.2959665 2.14065429,17.3913043 4.77111931,17.3913043 L8.88432001,17.3913043 C9.24835218,17.3913043 9.54223862,17.1024555 9.54223862,16.7473135 C9.54223862,16.3921715 9.24714277,16.1033226 8.88432001,16.1033226 L4.77111931,16.1033226 C2.86629981,16.1033226 1.31583721,14.5868663 1.31583721,12.7211869 C1.31583721,10.8555075 2.8650904,9.33905112 4.77111931,9.33905112 C5.06742456,9.33905112 5.37098627,9.38048435 5.67454798,9.46098321 C5.90312632,9.52135735 6.14742698,9.45743179 6.31432545,9.29169885 C6.48122392,9.12714972 6.5441132,8.88683696 6.48001451,8.66309749 C6.32762895,8.13748731 6.25143617,7.6059581 6.25143617,7.08389934 C6.25143617,3.88762123 8.90850819,1.28679789 12.173913,1.28679789 C15.4393179,1.28679789 18.0963899,3.88762123 18.0963899,7.08389934 C18.0963899,7.44022516 18.3914858,7.72789019 18.7543085,7.72789019 C21.1126565,7.72789019 23.0319889,9.60659144 23.0319889,11.9150145 C23.0319889,14.2234376 21.1138659,16.1021388 18.7543085,16.1021388 L15.4635061,16.1021388 C15.0994739,16.1021388 14.8055875,16.3909877 14.8055875,16.7461297 C14.8055875,17.1024555 15.1006833,17.3901205 15.4635061,17.3901205 L18.7543085,17.3901205 C21.838302,17.3901205 24.3478261,14.9337216 24.3478261,11.9150145 C24.3478261,9.1058412 22.1745177,6.78321244 19.3856201,6.47542269 Z" id="Shape"></path>
                </g>
            </g>
        </g>
    </g>
</svg>